<?xml version="1.0" encoding="UTF-8"?>
<svg height="36" version="1.1" viewBox="0 0 48 36" width="48" xmlns="http://www.w3.org/2000/svg" xmlns:xlink="http://www.w3.org/1999/xlink">
    <!-- Generator: Sketch 58 (84663) - https://sketch.com -->
    <title>Artboard</title>
    <desc>Created with Sketch.</desc>
    <defs>
        <radialGradient cx="98.3077981%" cy="99.7870837%" fx="98.3077981%" fy="99.7870837%" gradientTransform="translate(0.983078,0.997871),scale(0.366071,1.000000),translate(-0.983078,-0.997871)" id="radialGradient-1" r="260.572621%">
            <stop offset="9%" stop-color="#FFFFFF"/>
            <stop offset="24%" stop-color="#FFFFFF" stop-opacity="0.78"/>
            <stop offset="45%" stop-color="#FFFFFF" stop-opacity="0.5"/>
            <stop offset="64%" stop-color="#FFFFFF" stop-opacity="0.29"/>
            <stop offset="80%" stop-color="#FFFFFF" stop-opacity="0.13"/>
            <stop offset="92%" stop-color="#FFFFFF" stop-opacity="0.04"/>
            <stop offset="100%" stop-color="#FFFFFF" stop-opacity="0"/>
        </radialGradient>
    </defs>
    <g fill="none" fill-rule="evenodd" id="Artboard" stroke="none" stroke-width="1">
        <g fill-rule="nonzero" id="disneyplus-white" transform="translate(0.000000, 1.000000)">
            <rect fill="#F5F5F5" fill-opacity="0" height="36" id="Rectangle" width="48" x="0" y="-1"/>
            <path d="M21.5883429,18.7468905 L21.6457078,18.7468905 C22.0467516,18.7850758 22.4408608,18.8762026 22.8175903,19.0178557 C23.0948103,19.1322481 23.3202373,19.3433289 23.4513357,19.6112696 C23.6809808,20.0273042 23.7229496,20.5201568 23.5669109,20.9685071 C23.4108722,21.4168575 23.0713197,21.7790608 22.6318374,21.9659574 C22.2952106,22.1167681 21.9347404,22.2084517 21.5664896,22.2369227 C20.8762408,22.3023818 20.1810745,22.1796467 19.5559871,21.8819582 C19.1410985,21.6959976 18.7878184,21.3972363 18.5370776,21.0202888 C18.3691006,20.7323422 18.3850932,20.3738213 18.5780525,20.1017167 C18.8921935,19.6735916 19.5696454,19.5787537 20.0777344,19.5977213 C20.5722844,19.62959 21.0611469,19.72057 21.5337097,19.8686865 C21.7241987,19.9323755 21.9073352,20.0159396 22.0800419,20.1179745 C22.12966,20.1622064 22.1515562,20.2294343 22.1374067,20.2941019 C22.0527252,20.5488093 21.4271749,20.6842919 21.2468853,20.7113884 C20.7633813,20.784549 20.5120685,20.6030023 19.9602729,20.3889398 C19.8146076,20.327077 19.6611398,20.285145 19.5040856,20.2642958 C19.2527728,20.2399089 18.9577534,20.3076502 18.9058518,20.5786154 C18.8812668,20.7195174 19.0451665,20.8495807 19.1790179,20.9037737 C19.4371191,21.0176016 19.7160649,21.0775529 19.9985162,21.0799011 C20.8562578,21.0799011 21.8205341,20.9525475 22.522571,20.4593908 C22.6294619,20.397415 22.7004043,20.2888428 22.7137872,20.1667483 C22.7137872,19.912041 22.2685265,19.7575908 22.2685265,19.7575908 C21.6875272,19.5810494 21.0863364,19.4781682 20.4792885,19.4514001 C20.0067112,19.4107553 19.2636994,19.3484333 19.0861414,19.3213368 C18.8988191,19.3017701 18.7150351,19.2571058 18.5398092,19.1885638 C18.3662666,19.1094609 18.2350617,18.9605798 18.17923,18.7794063 C18.1115041,18.4439722 18.1844972,18.0956459 18.3813729,17.8147701 C18.8402919,17.145486 19.9329563,16.8907786 20.7661129,16.7905215 C21.5992695,16.6902644 22.8421753,16.692974 23.6234303,17.1048412 C23.7436234,17.1671632 23.8037199,17.2294852 23.779135,17.3541292 C23.7272942,17.5805768 23.5523278,17.7593612 23.3256793,17.8174797 C23.0239472,17.8835326 22.7166804,17.9216315 22.4078412,17.9312851 C21.4681498,17.9854782 20.3317788,17.955672 19.435794,18.2022504 C19.3533619,18.2172607 19.2751232,18.2495975 19.2063345,18.2970882 C19.0642881,18.4488287 19.4795006,18.4921832 19.5505238,18.5084411 L19.6078887,18.5084411 L21.5883429,18.7387615 L21.5883429,18.7468905 Z M15.9939012,14.5875742 C15.9939012,14.5875742 16.1468742,14.3599634 16.2670673,14.1892553 C16.5571628,13.8183525 16.882845,13.4762375 17.2395386,13.1677164 L17.4526082,12.991589 C17.4526082,12.991589 17.2723185,13.0105565 17.179442,13.0322337 C16.8942769,13.1207768 16.6309468,13.2675335 16.406382,13.4630685 C16.1168259,13.7096468 15.7944899,14.113385 15.9392679,14.4710591 L15.9939012,14.5875742 L15.9939012,14.5875742 Z M17.6165078,15.0184089 C18.0708299,14.9878402 18.5124106,14.8563408 18.9085835,14.6336383 C19.3046743,14.4168661 19.8837864,13.988741 19.8236899,13.4874553 C19.803954,13.3320204 19.6986458,13.2004012 19.5505238,13.1460392 C19.3943528,13.0754304 19.2149958,13.0754304 19.0588248,13.1460392 C18.9219507,13.1828877 18.7905994,13.2375561 18.6681973,13.3086183 C18.1225522,13.6504831 17.6363846,14.0778284 17.2286119,14.5740259 C17.1493938,14.6769927 17.0674439,14.7962174 17.0018841,14.8747973 C16.9363242,14.9533773 16.9308609,14.9696352 16.9363242,14.9831834 C17.1561122,15.0302831 17.382205,15.0412678 17.6055812,15.0156993 L17.6165078,15.0184089 Z M16.4309669,15.8719494 C16.374656,15.9540252 16.3244429,16.0400582 16.2807256,16.1293664 C16.2505694,16.1783285 16.2127659,16.2222297 16.1687275,16.2594296 C16.1244343,16.3051363 16.0632789,16.3309681 15.9993645,16.3309681 C15.9354501,16.3309681 15.8742947,16.3051363 15.8300015,16.2594296 C15.6635099,16.111972 15.5648556,15.9035316 15.5568354,15.6822737 C15.5636708,15.5920792 15.5636708,15.501503 15.5568354,15.4113085 C15.4959012,15.2691768 15.4169579,15.1353259 15.3219126,15.0129896 C15.2289784,14.8324243 15.1732597,14.6352953 15.1580129,14.433124 C15.1624499,13.8970118 15.3909591,13.3867631 15.7890266,13.0241048 C16.1744533,12.6244324 16.639619,12.3088225 17.1548571,12.0974037 C17.70341,11.8491586 18.320384,11.7918728 18.9058518,11.9348246 C19.115338,12.0106877 19.3029106,12.1362791 19.452184,12.3006276 C19.4717149,12.3326273 19.4966659,12.3610439 19.5259388,12.3846268 C19.5701554,12.3997537 19.6159878,12.4097556 19.6625219,12.414433 C19.8521781,12.4587681 20.0300759,12.5428427 20.1842691,12.6610114 C20.3734118,12.8047963 20.5034863,13.0118163 20.5503117,13.2435866 C20.6102614,13.7483421 20.4246837,14.2512999 20.0504177,14.5984128 C19.5491238,15.1337748 18.9342827,15.5520891 18.2502531,15.8231756 C17.8874163,15.9665781 17.4988346,16.0348158 17.1084189,16.0236899 C16.9991524,16.0236899 16.8871543,15.9857548 16.7806195,15.9803355 C16.68776,15.9643708 16.5963925,15.9408067 16.5074534,15.9098845 C16.4828685,15.8909169 16.4473569,15.8719494 16.4418936,15.8800783 L16.4309669,15.8719494 Z M17.0701756,16.9639392 C17.0991226,16.9693694 17.127479,16.9775356 17.1548571,16.9883261 C17.3805748,17.0959884 17.5351421,17.3106391 17.5646062,17.5573531 C17.6924976,18.3372784 17.7673321,19.124857 17.7886024,19.9147506 C17.8049924,20.2913923 17.8159191,20.659905 17.8295774,21.0311274 C17.8617532,21.3742073 17.8525829,21.7198689 17.8022608,22.0607953 C17.7776373,22.1793134 17.7069876,22.2834607 17.6055812,22.3507281 C17.4383614,22.4211003 17.2534455,22.4390647 17.0756389,22.4022115 C16.712328,22.3263412 16.5948666,22.0960207 16.542965,21.7437659 C16.4442671,20.6756921 16.4442671,19.6009018 16.542965,18.532828 C16.5795378,18.0984212 16.6572782,17.668397 16.7751562,17.2484527 C16.8188628,17.145486 16.906276,16.9341331 17.0483223,16.9774875 L17.0701756,16.9639392 Z M6.0697768,18.3594102 C6.0697768,18.3594102 5.5234446,18.3973453 5.16286534,18.4379901 C4.52918126,18.5073463 3.90355962,18.6361804 3.2944092,18.8227607 C3.1414362,18.8769538 2.83002685,19.0070171 2.80271024,19.1614673 C2.7964164,19.3240808 2.86840947,19.4799825 2.99665817,19.5814634 C3.06221803,19.6573337 3.43099228,20.0095885 3.54299035,20.0962973 C4.14484644,20.5692585 4.80368365,20.966109 5.50432296,21.2777058 C5.7255875,21.3698339 6.09436173,21.4998973 6.09436173,21.4998973 C6.09436173,21.4998973 6.06704511,20.4621004 6.07250844,19.4351422 C6.07250844,18.8932117 6.08616675,18.3512812 6.08616675,18.3512812 L6.0697768,18.3594102 Z M15.9556579,18.7658581 C15.9666179,19.0595709 15.9483181,19.3536395 15.9010247,19.6437854 C15.8604332,19.8398249 15.8056582,20.0327093 15.737125,20.2209413 C15.6360536,20.4458425 15.5404454,20.6300988 15.4366423,20.8143552 C15.2026223,21.1924202 14.9187523,21.5377921 14.5925591,21.8413134 C13.666526,22.6352416 12.232404,23.0877535 11.0004249,23.2367844 C10.1091797,23.3422896 9.20711553,23.316724 8.32339709,23.1609141 C8.01745106,23.1067211 7.56399534,23.0010446 7.56399534,23.0010446 C7.56399534,23.0010446 7.56399534,23.1825913 7.56399534,23.3072353 C7.54832907,23.4000075 7.5226872,23.4908477 7.48750885,23.5782006 C7.42655807,23.7039117 7.30487493,23.7898357 7.16517284,23.8058113 C6.98428824,23.8497517 6.79440437,23.840334 6.61884064,23.7787148 C6.36098821,23.6481108 6.19550192,23.388375 6.1872382,23.1013017 C6.14899496,22.8601427 6.10802004,22.4401466 6.10802004,22.4401466 L5.72012417,22.2558902 C5.19517408,21.9965704 4.69425716,21.6919134 4.22317394,21.345447 C4.10024921,21.2533189 3.56484364,20.8035166 3.44738223,20.7005498 C3.11357052,20.4068452 2.82706789,20.0641672 2.59783566,19.6844302 C2.41353207,19.4150887 2.37860698,19.0717084 2.50495919,18.7712773 C2.68798047,18.3160558 3.34904243,17.9583817 3.80249816,17.7741253 C4.38266184,17.5417541 4.98229217,17.3604129 5.59446778,17.2321949 C5.77835091,17.2103445 5.96077738,17.1777723 6.14079998,17.1346474 L6.15992159,17.1183895 C6.15992159,17.1048412 6.1872382,16.6523292 6.18450655,16.4870405 C6.18177487,16.3217517 6.30743129,15.2541487 6.34567456,15.0265379 C6.3814361,14.7794441 6.45225005,14.5386096 6.55601243,14.3111897 C6.58849912,14.2711021 6.63619954,14.2460604 6.68788618,14.2419588 C6.73957281,14.2378572 6.7906801,14.2550579 6.82917855,14.2895124 C7.32087752,14.5929935 7.47111887,15.6443386 7.50663046,16.186269 C7.52848374,16.5114273 7.5394104,16.9991647 7.5394104,16.9991647 C7.5394104,16.9991647 8.10486424,16.9829068 8.45178519,16.9991647 C8.80714732,17.014873 9.16115029,17.0528841 9.51166964,17.1129701 C10.138051,17.2081505 10.7500802,17.3801768 11.3336875,17.6250944 C11.7458805,17.8131041 12.0750318,18.143456 12.2597206,18.5545052 C12.3813093,18.8430516 12.3516728,19.1725084 12.1805024,19.4351422 C11.9819746,19.7850836 11.6243968,20.0175061 11.2216894,20.0583622 C10.9892533,20.0566934 10.7599618,20.0049175 10.5497008,19.9066217 C10.5052871,19.8613824 10.5052871,19.7892819 10.5497008,19.7440425 C10.5633591,19.7277846 10.7627704,19.6221082 10.8802318,19.5597862 C10.9367302,19.5306356 10.9890871,19.4941899 11.0359365,19.4514001 C11.1374114,19.3878659 11.20233,19.2802045 11.2107628,19.1614673 C11.2107628,19.0178557 11.0441315,18.9311468 10.8993534,18.8742441 C10.0218094,18.5844153 9.11174975,18.4024138 8.18954573,18.3323137 L7.56126369,18.3052172 L7.64048185,21.9198934 C7.64048185,21.9198934 7.94369623,21.9795057 8.18681405,22.0174408 C8.32339709,22.039118 8.90524088,22.0906014 9.06094556,22.0933111 C10.2382914,22.1258269 11.5549521,22.0201505 12.6339581,21.5134455 C13.1035583,21.3117367 13.5258522,21.0155601 13.8741322,20.6436471 C14.3223493,20.1240478 14.5400405,19.4469231 14.4778293,18.7658581 C14.4122695,17.9936071 13.8632056,17.0777447 13.4261398,16.5222659 C12.1996241,15.0455054 10.2219015,13.8370005 8.47910177,13.1216523 C6.75951504,12.3985919 4.92280886,11.9883184 3.05675471,11.9104377 C2.35831106,11.8813378 1.65882966,11.9331717 0.972497373,12.0648879 C0.896010865,12.0865651 0.819524357,12.110952 0.748501171,12.1272099 C0.688885359,12.1423751 0.631826862,12.1661101 0.579138189,12.1976608 L0.551821578,12.2220477 C0.573027032,12.2341265 0.594916609,12.2449832 0.617381443,12.2545635 C0.674746324,12.2789504 0.91240083,12.2924987 1.03805724,12.3168855 C1.14672423,12.3306711 1.24520077,12.3873273 1.31122333,12.4740454 C1.35979073,12.5322023 1.35979073,12.6164027 1.31122333,12.6745596 C1.18829859,12.8235905 0.732111206,12.796494 0.529968292,12.7666878 C0.327825379,12.7368817 0.0546592784,12.6691403 0.00822104144,12.4821743 C-0.0224541754,12.265712 0.0334270947,12.0459327 0.163925718,11.8697929 C0.37942183,11.5014728 0.744972924,11.2435978 1.1664453,11.1625736 C1.85393019,10.979451 2.55894377,10.8686476 3.26982427,10.8319961 C4.66022735,10.8028702 6.04558608,11.0071675 7.36731577,11.4362485 C8.24096463,11.7040669 9.09445537,12.0327525 9.92141879,12.4198523 C10.5585009,12.7332577 11.1785329,13.079668 11.7789483,13.4576492 C11.9291896,13.5579063 12.8087845,14.1973843 12.9453675,14.30848 C13.2185336,14.5388004 13.6009662,14.8720877 13.8686689,15.1213757 C14.4532559,15.6886953 14.9535992,16.3355432 15.3546925,17.0425192 C15.431179,17.1915501 15.4885439,17.3405809 15.5868837,17.511289 C15.6651497,17.6794236 15.7326643,17.8522802 15.7890266,18.0288326 C15.8108799,18.1290898 15.8463915,18.2781206 15.8518548,18.28354 C15.8913981,18.4450285 15.9205943,18.6088385 15.9392679,18.773987 L15.9556579,18.7658581 Z M33.6650162,17.9665106 C32.8725198,18.0900116 32.0735854,18.1687185 31.2720811,18.2022504 L31.0535482,18.8823731 C31.5517363,18.8428514 32.0523104,18.8428514 32.5504983,18.8823731 C32.5504983,18.8823731 32.755373,18.8579862 32.7799579,19.1126936 C32.7833566,19.2764725 32.7760569,19.4402978 32.7581045,19.6031406 C32.7581045,19.6031406 32.7581045,19.7548812 32.5259134,19.7955259 C32.2937223,19.8361707 30.6574574,19.8957831 30.6574574,19.8957831 L30.3842913,20.7818394 C30.3842913,20.7818394 30.2859515,20.9877729 30.507216,20.9281606 C30.7284806,20.8685483 32.4193788,20.5569382 32.6433748,20.6030023 C32.9299912,20.6894648 33.1106864,20.9698137 33.0695141,21.2641575 C32.9793693,21.6218316 31.2720811,22.7002732 30.2340499,22.6189836 C30.2340499,22.6189836 29.6877177,22.6542091 29.226067,21.922603 C28.7644163,21.1909969 29.3899667,19.9093313 29.3899667,19.9093313 C29.3899667,19.9093313 29.1168006,19.2915306 29.3134802,19.0964356 C29.4500554,19.0088752 29.609805,18.9636002 29.7723992,18.9663723 L30.1903434,18.1074125 C29.9027917,18.1192671 29.6247158,18.0041703 29.4309416,17.7930929 C29.1577755,17.4625153 29.1577755,17.3107747 29.3489918,17.2213562 C30.5100775,16.9331418 31.7032994,16.7920193 32.9001511,16.8013601 C32.9001511,16.8013601 33.37546,16.755296 33.7879408,17.5709014 C33.7879408,17.5709014 33.9846206,17.901479 33.6458945,17.9800589 L33.6650162,17.9665106 Z M28.5185668,21.2722864 C28.3437405,21.6814439 27.8793582,22.117698 27.3057093,21.8467327 C26.7320605,21.5757675 25.8388074,19.7440425 25.8388074,19.7440425 C25.8388074,19.7440425 25.4946181,19.0612102 25.4290582,19.0774681 C25.4290582,19.0774681 25.3553034,18.9446951 25.3088651,19.6898495 C25.2624269,20.4350039 25.3088651,21.8846679 25.0193091,22.1122787 C24.9008849,22.2152537 24.7422533,22.2603227 24.5868275,22.2351515 C24.4314017,22.2099803 24.295458,22.1172049 24.2162008,21.9822154 C24.0550328,21.7112501 23.9867412,21.0934494 24.0768861,19.9933305 C24.1670309,18.8932117 24.4374653,17.7226419 24.7652646,17.3568389 C24.8443302,17.2433877 24.9745102,17.1756729 25.1135514,17.1756729 C25.2525926,17.1756729 25.3827726,17.2433877 25.4618382,17.3568389 C25.912856,17.826393 26.3045458,18.3486847 26.6282574,18.9121793 L26.7566455,19.1289514 C26.7566455,19.1289514 27.4149758,20.2128124 27.485999,20.2128124 C27.5159961,20.2349423 27.5570733,20.2349423 27.5870704,20.2128124 C27.6553619,20.1938448 27.6280453,19.84159 27.6280453,19.84159 C27.4670243,18.7502747 27.2204268,17.6730817 26.8904969,16.6198134 C26.836671,16.4628288 26.8262941,16.2943938 26.8604486,16.132076 C26.9205452,15.8936266 27.163663,16.0047224 27.163663,16.0047224 C27.163663,16.0047224 28.0951594,16.4707825 28.5486151,17.9746396 C28.8772455,19.0438859 28.8667562,20.1874712 28.5185668,21.2506092 L28.5185668,21.2722864 Z M38.5519575,20.3726819 C38.1285501,21.1069976 36.9293511,22.6433705 35.3367928,22.2694385 C34.7212146,23.6920751 34.3101802,25.1934437 34.1157402,26.7295262 C34.1157402,26.7295262 34.0611069,27.1007486 33.7496976,26.9733949 C33.2449545,26.7066404 32.9018379,26.2137861 32.829128,25.6510846 C32.7171298,24.7243835 33.1350738,23.1609141 33.9818887,21.3644146 C33.6676581,20.8254518 33.5701007,20.1886943 33.7087226,19.5814634 C33.9561728,18.462456 34.5675739,17.4551551 35.4487906,16.7146512 C35.4487906,16.7146512 35.6318119,16.5574914 35.7383469,16.6035555 C35.8448816,16.6496196 35.801175,17.145486 35.7082985,17.3839354 C35.6154221,17.6223848 34.9325067,18.7875353 34.9325067,18.7875353 C34.9325067,18.7875353 34.5090993,19.5787537 34.6265609,20.1992641 C35.4296692,18.9772109 37.2489555,16.514137 38.3798629,17.2918072 C38.7568321,17.5627724 38.9261952,18.1453477 38.9261952,18.7766967 C38.9322576,19.3282559 38.8008898,19.8727621 38.5437628,20.3618433 L38.5519575,20.3726819 Z M38.2350851,18.4434094 C38.2350851,18.4434094 38.1722567,17.955672 37.6887528,18.4921832 C36.9996643,19.225283 36.4109349,20.0452322 35.937758,20.9308703 C36.4528846,20.8653442 36.9412103,20.6652289 37.3527586,20.3510047 C37.6505096,20.0800394 38.3416198,19.3782395 38.2296216,18.4352805 L38.2350851,18.4434094 Z M47.3369793,18.3323137 L44.4059073,18.3323137 C44.3484258,17.3490616 44.2261506,16.3705937 44.0398647,15.4031795 C44.0213125,15.3009762 43.931485,15.2267231 43.826795,15.2270489 L43.1520748,15.2270489 C43.0938747,15.2270489 43.0387208,15.2528482 43.0018334,15.2975031 C42.9630842,15.3422499 42.9478964,15.4025118 42.9608584,15.4600822 C43.1490952,16.4082086 43.2732075,17.3677595 43.3323645,18.3323137 L40.524217,18.3323137 C40.3940233,18.3323051 40.2880587,18.4362077 40.2865624,18.5653438 L40.2865624,19.1668866 C40.2865624,19.2970821 40.392964,19.4026263 40.524217,19.4026263 L43.3706076,19.4026263 C43.3706076,19.5516572 43.3706076,19.6735916 43.3706076,19.8090742 C43.373993,20.6074204 43.332041,21.405322 43.2449512,22.1989875 C43.2375047,22.2610416 43.2574185,22.3232646 43.2995845,22.3696956 C43.3413953,22.4155585 43.4011573,22.4412466 43.463484,22.4402425 L44.086303,22.4402425 C44.2079709,22.4406698 44.3099087,22.3489595 44.3212256,22.2287937 C44.4063461,21.4250239 44.4473818,20.6172604 44.4441505,19.8090742 C44.4441505,19.6871398 44.4441505,19.5381089 44.4441505,19.4026263 L47.323321,19.4026263 C47.4545741,19.4026263 47.5609756,19.2970821 47.5609756,19.1668866 L47.5609756,18.5599245 C47.5609756,18.4976487 47.5358545,18.4379622 47.4912052,18.3941819 C47.4465563,18.3504015 47.3860983,18.3261702 47.323321,18.3268944 L47.3369793,18.3323137 Z" id="Shape" fill="black"/>
            <path d="M43.7413711,13.6955298 C40.9267531,6.70645061 34.5198886,1.86142157 27.0900304,1.10337501 C19.660172,0.34532844 12.4240721,3.79840601 8.28351984,10.0778697 C8.24305566,10.1400765 8.23296513,10.2175649 8.25612659,10.2882309 C8.27982046,10.35952 8.3358138,10.415069 8.40678959,10.4376981 L8.93000106,10.6176123 C8.96081918,10.6229843 8.99232008,10.6229843 9.0231382,10.6176123 C9.12089687,10.6184835 9.21252714,10.5695895 9.26693833,10.4875205 C12.8220203,5.20109554 18.7392421,2.03899259 25.0646382,2.04539096 C32.7388433,2.047571 39.66753,6.687645 42.6593367,13.8283895 C42.701359,13.9317504 42.8007678,13.9994422 42.911355,14 L43.5386608,14 C43.6109316,13.9985352 43.6779663,13.9615906 43.7183142,13.9009879 C43.7586624,13.8403853 43.7672655,13.7637221 43.7413711,13.6955298 L43.7413711,13.6955298 Z" fill="url(#radialGradient-1)" id="Path"/>
        </g>
    </g>
</svg>