<?xml version="1.0" encoding="UTF-8"?>
<svg width="32px" height="32px" viewBox="0 0 32 32" version="1.1" xmlns="http://www.w3.org/2000/svg" xmlns:xlink="http://www.w3.org/1999/xlink">
    <title>EAAC19C2-B0B4-4A77-A0CD-22CBA321C1DE@2x</title>
    <g id="Symbols" stroke="none" stroke-width="1" fill="none" fill-rule="evenodd">
        <g id="icon-/-social-/-facebook-/-dark" fill="#0A0B09">
            <path d="M26,16.0611134 C26,10.5045098 21.5228516,6 16,6 C10.4771484,6 6,10.5045098 6,16.0611134 C6,21.0829059 9.65685547,25.24522 14.4375,26 L14.4375,18.969404 L11.8984375,18.969404 L11.8984375,16.0611134 L14.4375,16.0611134 L14.4375,13.8445244 C14.4375,11.3229578 15.9304297,9.93012242 18.2146484,9.93012242 C19.3087305,9.93012242 20.453125,10.1266285 20.453125,10.1266285 L20.453125,12.6026057 L19.1921484,12.6026057 C17.9499023,12.6026057 17.5625,13.3781564 17.5625,14.1738097 L17.5625,16.0611134 L20.3359375,16.0611134 L19.8925781,18.969404 L17.5625,18.969404 L17.5625,26 C22.3431445,25.24522 26,21.0829059 26,16.0611134" id="Fill-1"></path>
        </g>
    </g>
</svg>