<?xml version="1.0" encoding="UTF-8"?>
<svg width="32px" height="32px" viewBox="0 0 32 32" version="1.1" xmlns="http://www.w3.org/2000/svg" xmlns:xlink="http://www.w3.org/1999/xlink">
    <title>64C69A2F-B758-469C-BD24-333B99755265@2x</title>
    <g id="Symbols" stroke="none" stroke-width="1" fill="none" fill-rule="evenodd">
        <g id="icon-/-social-/-instagram-/-dark" fill="#000000">
            <path d="M17.6104574,7.00081014 C18.1977171,7.0026311 18.5694345,7.00705343 18.9021314,7.01779338 L19.0984793,7.0250252 C19.292969,7.03307459 19.4861209,7.04366589 19.7160636,7.05760181 C20.6741581,7.08663498 21.3128879,7.23180082 21.8935512,7.46406618 C22.4742146,7.69633153 22.9968117,8.01569639 23.4903755,8.50926026 C23.9839394,9.00282414 24.3033043,9.52542118 24.5355696,10.1060846 C24.7388018,10.6577148 24.8839677,11.3254777 24.942034,12.2835723 C24.9861644,13.0117241 24.9967557,13.3709457 24.9992976,14.5719992 L25,15.2086478 C25.0000334,15.2874415 25.0000557,15.3690967 25.0000706,15.4537899 L25.0000706,16.5458459 C25.0000557,16.6305391 25.0000334,16.7121943 25,16.790988 L24.9992976,17.4276366 C24.9967557,18.6286901 24.9861644,18.9879117 24.942034,19.7160636 C24.9130008,20.6741581 24.767835,21.3128879 24.5355696,21.8935512 C24.3033043,22.4742146 23.9839394,22.9968117 23.4903755,23.4903755 C22.9968117,23.9839394 22.4742146,24.3033043 21.8935512,24.5355696 C21.341921,24.7388018 20.6741581,24.8839677 19.7160636,24.942034 C18.9879117,24.9861644 18.6286901,24.9967557 17.4276366,24.9992976 L17.0189611,24.9998625 C16.9457139,24.999922 16.8697817,24.9999666 16.790988,25 L15.2086478,25 C15.1298541,24.9999666 15.0539219,24.999922 14.9806747,24.9998625 L14.5719992,24.9992976 C13.3709457,24.9967557 13.0117241,24.9861644 12.2835723,24.942034 C11.3254777,24.9130008 10.686748,24.767835 10.1060846,24.5355696 C9.52542118,24.3033043 9.00282414,23.9839394 8.50926026,23.4903755 C8.01569639,22.9968117 7.69633153,22.4742146 7.46406618,21.8935512 C7.26083399,21.341921 7.11566815,20.6741581 7.05760181,19.7160636 C7.04366589,19.4861209 7.03307459,19.292969 7.0250252,19.0984793 L7.01779338,18.9021314 C7.00705343,18.5694345 7.0026311,18.1977171 7.00081014,17.6104574 L7.00081014,14.3891785 C7.00299529,13.6844668 7.00892642,13.290136 7.0250252,12.9011565 L7.03395162,12.7057006 C7.04050708,12.573811 7.04831119,12.4368674 7.05760181,12.2835723 C7.08663498,11.3254777 7.23180082,10.686748 7.46406618,10.1060846 C7.69633153,9.52542118 8.01569639,9.00282414 8.50926026,8.50926026 C9.00282414,8.01569639 9.52542118,7.69633153 10.1060846,7.46406618 C10.6577148,7.26083399 11.3254777,7.11566815 12.2835723,7.05760181 C12.4368674,7.04831119 12.573811,7.04050708 12.7057006,7.03395162 L12.9011565,7.0250252 C13.290136,7.00892642 13.6844668,7.00299529 14.3891785,7.00081014 Z M17.2134044,8.62585747 L14.4610996,8.62595953 C13.3895384,8.62749742 13.0574179,8.63320956 12.3997049,8.65442611 C11.4996767,8.71249245 11.035146,8.85765829 10.7157811,8.97379097 C10.2802836,9.11895682 9.98995189,9.322189 9.67058703,9.64155386 C9.35122217,9.96091872 9.17702316,10.2802836 9.00282414,10.686748 C8.85765829,11.0061128 8.71249245,11.4996767 8.68345928,12.3706718 C8.63700621,13.1139209 8.62771559,13.448383 8.62585747,14.7862314 L8.6257943,17.4071341 C8.62586119,17.469253 8.62593923,17.5290511 8.62603028,17.5867068 L8.62674751,17.908359 C8.62915564,18.7051518 8.63584488,19.0448167 8.65442611,19.6579972 C8.71249245,20.5580255 8.85765829,21.0225562 8.97379097,21.341921 C9.11895682,21.7774186 9.322189,22.0677503 9.64155386,22.3871151 C9.96091872,22.70648 10.2802836,22.880679 10.686748,23.054878 C11.0061128,23.2000439 11.4996767,23.3452097 12.3706718,23.3742429 C12.556484,23.3858561 12.7167471,23.3951467 12.8735263,23.4025792 L13.061401,23.4106361 C13.4079502,23.4238808 13.7803552,23.4290315 14.4135663,23.4310345 L14.7862314,23.4318447 C14.8531239,23.4319376 14.9225247,23.4320119 14.9946106,23.4320714 L16.2788578,23.4321717 C18.4315897,23.4299866 18.7091932,23.4021147 19.628964,23.3742429 C20.5289923,23.3161765 20.993523,23.1710107 21.3128879,23.054878 C21.7483854,22.9097122 22.0387171,22.70648 22.3580819,22.3871151 C22.6774468,22.0677503 22.8516458,21.7483854 23.0258448,21.341921 C23.1710107,21.0225562 23.3161765,20.5289923 23.3452097,19.6579972 C23.356823,19.4721849 23.3661136,19.3119218 23.3735461,19.1551427 L23.3816029,18.9672679 C23.3948476,18.6207187 23.3999983,18.2483138 23.4020014,17.6151027 L23.4028115,17.2424375 C23.4029044,17.1755451 23.4029787,17.1061442 23.4030382,17.0340584 L23.4031385,15.7498112 C23.4015907,14.2249594 23.387155,13.6409273 23.3689602,13.1030769 L23.3623973,12.9137082 C23.356823,12.7550709 23.3510163,12.5913238 23.3452097,12.3997049 C23.2871434,11.4996767 23.1419775,11.035146 23.0258448,10.7157811 C22.880679,10.2802836 22.6774468,9.98995189 22.3580819,9.67058703 C22.0387171,9.35122217 21.7193522,9.17702316 21.3128879,9.00282414 C20.993523,8.85765829 20.4999591,8.71249245 19.628964,8.68345928 C18.8857149,8.63700621 18.5512528,8.62771559 17.2134044,8.62585747 Z M15.9998179,11.383544 C18.5547368,11.383544 20.6160918,13.444899 20.6160918,15.9998179 C20.6160918,18.5547368 18.5547368,20.6160918 15.9998179,20.6160918 C13.444899,20.6160918 11.383544,18.5547368 11.383544,15.9998179 C11.383544,13.444899 13.444899,11.383544 15.9998179,11.383544 Z M15.9998179,13.0094015 C14.3449273,13.0094015 13.0094015,14.3449273 13.0094015,15.9998179 C13.0094015,17.6547085 14.3449273,18.9902343 15.9998179,18.9902343 C17.6547085,18.9902343 18.9902343,17.6547085 18.9902343,15.9998179 C18.9902343,14.3449273 17.6547085,13.0094015 15.9998179,13.0094015 Z M20.7902908,10.1351177 C21.3835701,10.1351177 21.8645181,10.6160657 21.8645181,11.209345 C21.8645181,11.8026243 21.3835701,12.2835723 20.7902908,12.2835723 C20.1970115,12.2835723 19.7160636,11.8026243 19.7160636,11.209345 C19.7160636,10.6160657 20.1970115,10.1351177 20.7902908,10.1351177 Z" id="Combined-Shape"></path>
        </g>
    </g>
</svg>