<?xml version="1.0" encoding="UTF-8"?>
<svg width="32px" height="32px" viewBox="0 0 32 32" version="1.1" xmlns="http://www.w3.org/2000/svg" xmlns:xlink="http://www.w3.org/1999/xlink">
    <title>4F3FE199-C2F6-49D8-94DF-11F0BA3F206E@2x</title>
    <g id="Symbols" stroke="none" stroke-width="1" fill="none" fill-rule="evenodd">
        <g id="icon-/-social-/-twitter-/-dark" fill="#000000">
            <path d="M25,10.6570659 C24.3379375,10.9380888 23.6258125,11.1281292 22.8788125,11.2137281 C23.6415625,10.7760431 24.227125,10.0837147 24.50275,9.25841184 C23.7895,9.66325707 22.998625,9.95720054 22.1576875,10.1160162 C21.4838125,9.42907133 20.5241875,9 19.4621875,9 C17.4225625,9 15.769375,10.5822342 15.769375,12.5343203 C15.769375,12.8110363 15.802,13.0807537 15.865,13.3397039 C12.7954375,13.1921938 10.074625,11.784926 8.25325,9.64656797 C7.9354375,10.1687752 7.7531875,10.7760431 7.7531875,11.4236878 C7.7531875,12.6495289 8.405125,13.7316285 9.3956875,14.3652759 C8.7904375,14.3469717 8.2211875,14.1881561 7.723375,13.923284 C7.7228125,13.938358 7.7228125,13.9528937 7.7228125,13.9679677 C7.7228125,15.6804845 8.99575,17.1087483 10.6855,17.4333782 C10.3755625,17.5141319 10.0493125,17.5572005 9.712375,17.5572005 C9.4744375,17.5572005 9.24325,17.5351279 9.0176875,17.4942127 C9.487375,18.8982503 10.8514375,19.9200538 12.4675,19.9485868 C11.2035625,20.8966353 9.611125,21.4613728 7.880875,21.4613728 C7.58275,21.4613728 7.289125,21.4446837 7,21.4123822 C8.6340625,22.4148048 10.57525,23 12.661,23 C19.45375,23 23.1679375,17.6142665 23.1679375,12.9440108 C23.1679375,12.7905787 23.1645625,12.6382234 23.15725,12.4864065 C23.8789375,11.9884253 24.505,11.3660834 25,10.6570659" id="Fill-1"></path>
        </g>
    </g>
</svg>