<?xml version="1.0" encoding="UTF-8"?>
<svg width="32px" height="32px" viewBox="0 0 32 32" version="1.1" xmlns="http://www.w3.org/2000/svg" xmlns:xlink="http://www.w3.org/1999/xlink">
    <title>1EEEA016-4374-401E-98FE-91ABEF1AA12D@2x</title>
    <g id="Symbols" stroke="none" stroke-width="1" fill="none" fill-rule="evenodd">
        <g id="icon-/-social-/-youtube-/-dark" fill="#000000">
            <path d="M16.3499992,9.00051338 C16.982832,9.00396598 18.3840512,9.01720095 19.8276043,9.06793499 L20.3376692,9.08744331 C21.7811341,9.14738429 23.181515,9.24808513 23.8127596,9.41726255 C24.6733277,9.64724642 25.351055,10.3248916 25.581055,11.18544 C25.9432823,12.5371324 25.9915793,15.1616312 25.9980189,15.8374674 L25.9989941,15.9886307 L25.9989941,15.9886307 L25.9990096,15.9992948 C25.9990096,15.9992948 25.9990096,16.0029105 25.9989941,16.0099585 L25.9980189,16.161117 C25.9915793,16.8369324 25.9432823,19.4613593 25.581055,20.8131497 C25.351055,21.673698 24.6733277,22.3513432 23.8127596,22.58144 C22.4760063,22.9396013 17.6901158,22.9907672 16.3499992,22.9980766 L16.159734,22.9989339 C16.1337347,22.9990241 16.1106898,22.9990918 16.0907471,22.9991425 L15.907272,22.9991425 C15.8873292,22.9990918 15.8642843,22.9990241 15.8382851,22.9989339 L15.6480196,22.9980766 C14.307901,22.9907672 9.52199658,22.9396013 8.18514593,22.58144 C7.32457774,22.3513432 6.64685047,21.673698 6.41685047,20.8131497 C6.06864971,19.5133513 6.01061625,17.0369288 6.00094401,16.2475601 L6.00094401,15.7510217 C6.01061625,14.9616295 6.06864971,12.4851443 6.41685047,11.18544 C6.64685047,10.3248916 7.32457774,9.64724642 8.18514593,9.41726255 C8.81643651,9.24808513 10.2168448,9.14738429 11.660326,9.08744331 L12.1703962,9.06793499 C13.6139631,9.01720095 15.0151858,9.00396598 15.6480196,9.00051338 Z M13.9990096,12.9992948 L13.9990096,18.9992948 L18.9990096,15.9994095 L13.9990096,12.9992948 Z" id="Combined-Shape"></path>
        </g>
    </g>
</svg>